# Blender v2.79 (sub 0) OBJ File: ''
# www.blender.org
mtllib Diamond.mtl
o Cylinder.000_Cylinder.006
v 0.005192 -0.227807 -0.002596
v 0.005192 1.000000 -1.002596
v 0.371421 1.000000 -0.923842
v 0.711121 1.000000 -0.708525
v 0.268224 1.203440 -0.616329
v 0.331063 1.272471 -0.328467
v 0.312249 0.750370 -0.726323
v 0.445301 1.203440 -0.442705
v -0.361036 1.000000 -0.923842
v -0.700737 1.000000 -0.708525
v 0.005192 1.203440 -0.684182
v -0.257840 1.203440 -0.616329
v 0.005192 1.272803 -0.468211
v -0.320678 1.272471 -0.328467
v -0.301865 0.750370 -0.726323
v 0.005192 0.750371 -0.815719
v -0.434917 1.203440 -0.442705
v 0.005192 1.000000 0.997404
v 0.371421 1.000000 0.918650
v 0.711121 1.000000 0.703333
v 0.268224 1.203440 0.611137
v 0.331063 1.272471 0.323274
v 0.312249 0.750370 0.721131
v 0.445301 1.203440 0.437513
v -0.361036 1.000000 0.918650
v -0.700737 1.000000 0.703333
v 0.005192 1.203440 0.678990
v -0.257840 1.203440 0.611137
v 0.005192 1.272803 0.463019
v -0.320678 1.272471 0.323274
v -0.301864 0.750370 0.721131
v 0.005192 0.750371 0.810526
v -0.434917 1.203440 0.437513
v 1.005192 1.000000 -0.002596
v 0.926438 1.000000 0.363633
v 0.618925 1.203440 0.260436
v 0.728919 0.750370 0.304461
v 0.818315 0.750371 -0.002596
v 0.926438 1.000000 -0.368825
v 0.686778 1.203440 -0.002596
v 0.618925 1.203440 -0.265628
v 0.470807 1.272803 -0.002596
v 0.728919 0.750370 -0.309653
v -0.916054 1.000000 0.363633
v -0.608541 1.203440 0.260436
v -0.718535 0.750370 0.304461
v -0.807930 0.750371 -0.002596
v -0.994808 1.000000 -0.002596
v -0.916054 1.000000 -0.368825
v -0.676394 1.203440 -0.002596
v -0.608541 1.203440 -0.265628
v -0.460423 1.272803 -0.002596
v -0.718535 0.750370 -0.309653
v 0.005192 1.272692 -0.002596
v -0.562408 0.750371 -0.570197
v -0.555832 0.750372 0.558428
v 0.555127 0.750373 0.547339
v 0.553734 0.750373 -0.551138
vn 0.2185 -0.6238 -0.7504
vn 0.1227 0.8412 -0.5266
vn 0.2905 0.8400 -0.4583
vn 0.0974 0.9565 -0.2749
vn 0.4190 -0.6224 -0.6611
vn 0.1915 -0.6129 -0.7666
vn 0.2751 0.9196 -0.2806
vn 0.3332 0.8795 -0.3399
vn -0.2185 -0.6238 -0.7504
vn -0.1227 0.8412 -0.5266
vn -0.2905 0.8400 -0.4583
vn -0.0974 0.9565 -0.2749
vn -0.4190 -0.6224 -0.6611
vn -0.1915 -0.6129 -0.7666
vn -0.2751 0.9196 -0.2806
vn -0.3332 0.8795 -0.3399
vn 0.2185 -0.6238 0.7504
vn 0.1227 0.8412 0.5266
vn 0.2905 0.8400 0.4583
vn 0.0974 0.9565 0.2749
vn 0.4190 -0.6224 0.6611
vn 0.1915 -0.6129 0.7666
vn 0.2751 0.9196 0.2806
vn 0.3332 0.8795 0.3399
vn -0.2185 -0.6238 0.7504
vn -0.1227 0.8412 0.5266
vn -0.2905 0.8400 0.4583
vn -0.0974 0.9565 0.2749
vn -0.4190 -0.6224 0.6611
vn -0.1915 -0.6129 0.7666
vn -0.2751 0.9196 0.2806
vn -0.3332 0.8795 0.3399
vn 0.7504 -0.6238 0.2185
vn 0.5266 0.8412 0.1227
vn 0.4583 0.8400 0.2905
vn 0.2749 0.9565 0.0974
vn 0.6611 -0.6224 0.4190
vn 0.7666 -0.6129 0.1915
vn 0.2806 0.9196 0.2751
vn 0.3399 0.8795 0.3332
vn 0.7504 -0.6238 -0.2185
vn 0.5266 0.8412 -0.1227
vn 0.4583 0.8400 -0.2905
vn 0.2749 0.9565 -0.0974
vn 0.6611 -0.6224 -0.4190
vn 0.7666 -0.6129 -0.1915
vn 0.2806 0.9196 -0.2751
vn 0.3399 0.8795 -0.3332
vn -0.7504 -0.6238 0.2185
vn -0.5266 0.8412 0.1227
vn -0.4583 0.8400 0.2905
vn -0.2749 0.9565 0.0974
vn -0.6611 -0.6224 0.4190
vn -0.7666 -0.6129 0.1915
vn -0.2806 0.9196 0.2751
vn -0.3399 0.8795 0.3332
vn -0.7504 -0.6238 -0.2185
vn -0.5266 0.8412 -0.1227
vn -0.4583 0.8400 -0.2905
vn -0.2749 0.9565 -0.0974
vn -0.6611 -0.6224 -0.4190
vn -0.7666 -0.6129 -0.1915
vn -0.2806 0.9196 -0.2751
vn -0.3399 0.8795 -0.3332
vn 0.6372 -0.6166 -0.4623
vn -0.4022 -0.6228 -0.6711
vn -0.4228 -0.6210 0.6600
vn 0.6399 -0.6172 0.4579
vn -0.0009 1.0000 -0.0002
vn 0.0009 1.0000 -0.0002
vn 0.0002 1.0000 -0.0009
vn -0.0002 1.0000 -0.0009
vn -0.0009 1.0000 0.0002
vn -0.0002 1.0000 0.0009
vn 0.0009 1.0000 0.0002
vn 0.0002 1.0000 0.0009
vn -0.6829 -0.6052 -0.4092
vn -0.6600 -0.6210 0.4228
vn 0.4386 -0.6572 0.6130
vn 0.4407 -0.6609 -0.6075
vn -0.4092 -0.6052 -0.6829
vn -0.6711 -0.6228 -0.4022
vn -0.6569 -0.6256 0.4208
vn -0.4208 -0.6256 0.6569
vn 0.6130 -0.6572 0.4386
vn 0.4579 -0.6172 0.6399
vn 0.6075 -0.6609 -0.4407
vn 0.4623 -0.6166 -0.6372
usemtl Material.001
s off
f 1//1 16//1 7//1
f 3//2 2//2 11//2 5//2
f 4//3 3//3 5//3
f 5//4 11//4 13//4 6//4
f 7//5 3//5 4//5
f 7//6 16//6 2//6 3//6
f 6//7 8//7 5//7
f 8//8 4//8 5//8
f 1//9 15//9 16//9
f 9//10 12//10 11//10 2//10
f 10//11 12//11 9//11
f 12//12 14//12 13//12 11//12
f 15//13 10//13 9//13
f 15//14 9//14 2//14 16//14
f 14//15 12//15 17//15
f 17//16 12//16 10//16
f 1//17 23//17 32//17
f 19//18 21//18 27//18 18//18
f 20//19 21//19 19//19
f 21//20 22//20 29//20 27//20
f 23//21 20//21 19//21
f 23//22 19//22 18//22 32//22
f 22//23 21//23 24//23
f 24//24 21//24 20//24
f 1//25 32//25 31//25
f 25//26 18//26 27//26 28//26
f 26//27 25//27 28//27
f 28//28 27//28 29//28 30//28
f 31//29 25//29 26//29
f 31//30 32//30 18//30 25//30
f 30//31 33//31 28//31
f 33//32 26//32 28//32
f 1//33 38//33 37//33
f 35//34 34//34 40//34 36//34
f 20//35 35//35 36//35
f 36//36 40//36 42//36 22//36
f 37//37 35//37 20//37
f 37//38 38//38 34//38 35//38
f 22//39 24//39 36//39
f 24//40 20//40 36//40
f 1//41 43//41 38//41
f 39//42 41//42 40//42 34//42
f 4//43 41//43 39//43
f 41//44 6//44 42//44 40//44
f 43//45 4//45 39//45
f 43//46 39//46 34//46 38//46
f 6//47 41//47 8//47
f 8//48 41//48 4//48
f 1//49 46//49 47//49
f 44//50 45//50 50//50 48//50
f 26//51 45//51 44//51
f 45//52 30//52 52//52 50//52
f 46//53 26//53 44//53
f 46//54 44//54 48//54 47//54
f 30//55 45//55 33//55
f 33//56 45//56 26//56
f 1//57 47//57 53//57
f 49//58 48//58 50//58 51//58
f 10//59 49//59 51//59
f 51//60 50//60 52//60 14//60
f 53//61 49//61 10//61
f 53//62 47//62 48//62 49//62
f 14//63 17//63 51//63
f 17//64 10//64 51//64
f 1//65 58//65 43//65
f 15//66 1//66 55//66
f 31//67 56//67 1//67
f 1//68 37//68 57//68
f 30//69 29//69 54//69
f 22//70 54//70 29//70
f 14//71 52//71 54//71
f 6//72 54//72 42//72
f 14//73 54//73 13//73
f 22//74 42//74 54//74
f 6//75 13//75 54//75
f 30//76 54//76 52//76
f 10//77 55//77 53//77
f 1//78 56//78 46//78
f 20//79 23//79 57//79
f 4//80 58//80 7//80
f 55//81 10//81 15//81
f 53//82 55//82 1//82
f 46//83 56//83 26//83
f 56//84 31//84 26//84
f 57//85 37//85 20//85
f 57//86 23//86 1//86
f 43//87 58//87 4//87
f 7//88 58//88 1//88
